<svg width="24" height="24" viewBox="0 0 24 24" fill="none" xmlns="http://www.w3.org/2000/svg">
<g clip-path="url(#clip0_3505_2204)">
<path d="M20.0339 14.4657L12.5339 6.96569C12.3917 6.82486 12.1997 6.74585 11.9995 6.74585C11.7994 6.74585 11.6074 6.82486 11.4652 6.96569L3.96516 14.4657C3.86342 14.5741 3.79445 14.7092 3.76625 14.8552C3.73804 15.0012 3.75175 15.1522 3.80579 15.2907C3.86316 15.4272 3.95966 15.5437 4.08312 15.6254C4.20658 15.7072 4.35147 15.7505 4.49954 15.7501H19.4995C19.6476 15.7505 19.7925 15.7072 19.916 15.6254C20.0394 15.5437 20.1359 15.4272 20.1933 15.2907C20.2473 15.1522 20.261 15.0012 20.2328 14.8552C20.2046 14.7092 20.1357 14.5741 20.0339 14.4657Z" fill="black"/>
</g>
<defs>
<clipPath id="clip0_3505_2204">
<rect width="24" height="24" fill="white"/>
</clipPath>
</defs>
</svg>
