<svg width="24" height="24" viewBox="0 0 24 24" fill="none" xmlns="http://www.w3.org/2000/svg">
<g clip-path="url(#clip0_3505_2655)">
<path d="M20.1933 8.70938C20.1359 8.57288 20.0394 8.45641 19.916 8.37467C19.7925 8.29292 19.6476 8.24954 19.4995 8.25H4.49954C4.35147 8.24954 4.20658 8.29292 4.08312 8.37467C3.95966 8.45641 3.86316 8.57288 3.80579 8.70938C3.75175 8.84791 3.73804 8.99891 3.76625 9.14491C3.79445 9.29091 3.86342 9.42594 3.96516 9.53438L11.4652 17.0344C11.6085 17.173 11.8001 17.2505 11.9995 17.2505C12.1989 17.2505 12.3906 17.173 12.5339 17.0344L20.0339 9.53438C20.1357 9.42594 20.2046 9.29091 20.2328 9.14491C20.261 8.99891 20.2473 8.84791 20.1933 8.70938Z" fill="black"/>
</g>
<defs>
<clipPath id="clip0_3505_2655">
<rect width="24" height="24" fill="white"/>
</clipPath>
</defs>
</svg>
